<svg data-logo="logo" xmlns="http://www.w3.org/2000/svg" viewBox="0 0 198 43">
        <g style="opacity: 1;" id="logogram" transform="translate(0, 1) rotate(0)"><path fill-rule="evenodd" clip-rule="evenodd" d="M0.603516 15.43V31.43H5.60352C6.12878 31.43 6.64893 31.5334 7.13428 31.7345C7.61951 31.9355 8.06055 32.2301 8.43188 32.6016C8.80334 32.973 9.09802 33.414 9.29907 33.8993C9.5 34.3846 9.60352 34.9047 9.60352 35.43V40.43H21.6035L36.6035 25.43V9.42999H31.6035C31.0782 9.42999 30.5581 9.32654 30.0728 9.12552C29.5875 8.9245 29.1465 8.62985 28.7751 8.25842C28.4037 7.88699 28.109 7.44601 27.908 6.96072C27.707 6.47543 27.6035 5.95529 27.6035 5.42999V0.429993H15.6035L0.603516 15.43ZM17.6035 30.43H10.6035V19.43L19.6035 10.43H26.6035V21.43L17.6035 30.43Z" fill="#0004E8"></path></g>
        <g style="opacity: 1;" id="logotype" transform="translate(43, 2)"><path fill="#0b0a0a" d="M8.38 32L8.38 7.50L13.11 7.50L13.11 32L8.38 32ZM16.26 32L16.26 14.50L20.32 14.50L20.63 16.21Q21.47 15.34 22.64 14.80Q23.82 14.25 25.22 14.25L25.22 14.25Q26.90 14.25 28.30 14.97Q29.70 15.69 30.54 17.02L30.54 17.02Q31.48 15.72 33.00 14.99Q34.53 14.25 36.31 14.25L36.31 14.25Q38.38 14.25 39.90 15.13Q41.42 16.00 42.26 17.67Q43.10 19.33 43.10 21.78L43.10 21.78L43.10 32L38.62 32L38.62 22.38Q38.62 20.38 37.75 19.36Q36.87 18.35 35.26 18.35L35.26 18.35Q33.62 18.35 32.69 19.38Q31.76 20.41 31.76 22.45L31.76 22.45L31.76 32L27.28 32L27.28 22.38Q27.28 20.38 26.49 19.36Q25.71 18.35 24.10 18.35L24.10 18.35Q22.45 18.35 21.59 19.38Q20.73 20.41 20.73 22.41L20.73 22.41L20.73 32L16.26 32ZM60.18 32L56.05 32L55.70 29.86Q54.83 30.95 53.72 31.58Q52.62 32.21 50.77 32.21L50.77 32.21Q49.02 32.21 47.70 31.60Q46.39 30.98 45.66 29.88Q44.92 28.78 44.92 27.27L44.92 27.27Q44.92 25.07 46.51 23.62Q48.11 22.16 51.33 21.78L51.33 21.78L55.70 21.29L55.70 20.06Q55.70 19.33 55.04 18.70Q54.37 18.07 52.94 18.07L52.94 18.07Q51.68 18.07 50.75 18.68Q49.82 19.29 49.51 20.52L49.51 20.52L45.66 19.12Q46.36 16.77 48.32 15.51Q50.28 14.25 53.15 14.25L53.15 14.25Q56.65 14.25 58.41 15.99Q60.18 17.72 60.18 20.55L60.18 20.55L60.18 32ZM55.70 24.68L55.70 24.41L51.92 24.89Q50.77 25.04 50.17 25.58Q49.58 26.12 49.58 26.89L49.58 26.89Q49.58 27.63 50.17 28.13Q50.77 28.64 51.85 28.64L51.85 28.64Q53.08 28.64 53.93 28.18Q54.79 27.73 55.25 26.86Q55.70 25.98 55.70 24.68L55.70 24.68ZM75.16 16.67L75.44 14.50L79.50 14.50L79.50 29.41Q79.50 32.38 78.03 34.54Q76.56 36.69 73.78 37.84Q71.00 39 67.11 39L67.11 39L66.41 35.22Q70.65 35.15 72.83 33.72Q75.02 32.28 75.02 29.59L75.02 29.59L75.02 29.52L75.62 29.30Q74.78 30.53 73.31 31.39Q71.84 32.24 69.81 32.24L69.81 32.24Q67.50 32.24 65.75 31.13Q64.00 30.00 63.00 27.99Q62.00 25.98 62.00 23.25L62.00 23.25Q62.00 20.52 63.00 18.49Q64.00 16.46 65.75 15.36Q67.50 14.25 69.81 14.25L69.81 14.25Q71.00 14.25 72.03 14.59Q73.06 14.92 73.85 15.46Q74.64 16.00 75.16 16.67L75.16 16.67ZM66.80 23.25L66.80 23.25Q66.80 25.45 67.93 26.80Q69.07 28.15 70.96 28.15L70.96 28.15Q72.05 28.15 72.96 27.57Q73.87 26.99 74.44 25.88Q75.02 24.75 75.02 23.25L75.02 23.25Q75.02 21.67 74.44 20.59Q73.87 19.50 72.94 18.93Q72.01 18.35 70.96 18.35L70.96 18.35Q69.07 18.35 67.93 19.70Q66.80 21.04 66.80 23.25ZM83.00 32L83.00 14.50L87.48 14.50L87.48 32L83.00 32ZM85.28 12.26L85.28 12.26Q84.02 12.26 83.21 11.45Q82.41 10.65 82.41 9.53L82.41 9.53Q82.41 8.37 83.21 7.59Q84.02 6.80 85.28 6.80L85.28 6.80Q86.47 6.80 87.29 7.59Q88.11 8.37 88.11 9.53L88.11 9.53Q88.11 10.65 87.29 11.45Q86.47 12.26 85.28 12.26ZM90.98 32L90.98 14.50L95.04 14.50L95.36 16.28Q96.20 15.34 97.40 14.80Q98.61 14.25 100.01 14.25L100.01 14.25Q102.08 14.25 103.53 15.13Q104.98 16.00 105.77 17.67Q106.56 19.33 106.56 21.78L106.56 21.78L106.56 32L102.04 32L102.04 22.38Q102.04 20.34 101.23 19.33Q100.43 18.31 98.82 18.31L98.82 18.31Q97.17 18.31 96.32 19.35Q95.46 20.38 95.46 22.41L95.46 22.41L95.46 32L90.98 32ZM123.64 32L119.50 32L119.16 29.86Q118.28 30.95 117.18 31.58Q116.08 32.21 114.22 32.21L114.22 32.21Q112.47 32.21 111.16 31.60Q109.84 30.98 109.11 29.88Q108.38 28.78 108.38 27.27L108.38 27.27Q108.38 25.07 109.97 23.62Q111.56 22.16 114.78 21.78L114.78 21.78L119.16 21.29L119.16 20.06Q119.16 19.33 118.49 18.70Q117.83 18.07 116.39 18.07L116.39 18.07Q115.13 18.07 114.20 18.68Q113.28 19.29 112.96 20.52L112.96 20.52L109.11 19.12Q109.81 16.77 111.77 15.51Q113.73 14.25 116.60 14.25L116.60 14.25Q120.10 14.25 121.87 15.99Q123.64 17.72 123.64 20.55L123.64 20.55L123.64 32ZM119.16 24.68L119.16 24.41L115.38 24.89Q114.22 25.04 113.63 25.58Q113.03 26.12 113.03 26.89L113.03 26.89Q113.03 27.63 113.63 28.13Q114.22 28.64 115.31 28.64L115.31 28.64Q116.53 28.64 117.39 28.18Q118.25 27.73 118.70 26.86Q119.16 25.98 119.16 24.68L119.16 24.68ZM125.10 14.50L127.59 14.50L127.59 9.60L132.10 9.60L132.10 14.50L135.99 14.50L135.99 18.45L132.10 18.45L132.10 25.56Q132.10 26.93 132.70 27.48Q133.29 28.04 134.19 28.08Q135.08 28.11 135.99 27.98L135.99 27.98L135.99 31.82Q134.38 32.17 132.86 32.03Q131.34 31.89 130.15 31.21Q128.95 30.53 128.27 29.13Q127.59 27.73 127.59 25.56L127.59 25.56L127.59 18.45L125.10 18.45L125.10 14.50ZM145.72 32.24L145.72 32.24Q143.09 32.24 141.10 31.09Q139.10 29.93 138.00 27.87Q136.90 25.80 136.90 23.11L136.90 23.11Q136.90 20.52 138.00 18.52Q139.10 16.53 141.03 15.39Q142.95 14.25 145.44 14.25L145.44 14.25Q147.96 14.25 149.88 15.34Q151.81 16.42 152.88 18.37Q153.94 20.31 153.94 22.90L153.94 22.90Q153.94 23.28 153.89 23.76Q153.84 24.23 153.77 24.75L153.77 24.75L141.73 24.75Q141.87 25.88 142.45 26.66Q143.02 27.45 143.88 27.89Q144.74 28.32 145.82 28.32L145.82 28.32Q147.12 28.32 148.15 27.80Q149.19 27.27 149.64 26.36L149.64 26.36L153.59 27.55Q152.54 29.80 150.48 31.02Q148.41 32.24 145.72 32.24ZM141.76 21.50L149.04 21.50Q149.01 20.52 148.52 19.73Q148.03 18.95 147.22 18.51Q146.42 18.07 145.44 18.07L145.44 18.07Q144.56 18.07 143.79 18.51Q143.02 18.95 142.48 19.71Q141.94 20.48 141.76 21.50L141.76 21.50Z"></path></g>
        
      </svg>